<svg xmlns="http://www.w3.org/2000/svg" viewBox="0 0 64 64">
  <defs>
    <radialGradient id="w" cx="36%" cy="30%" r="75%">
      <stop offset="0" stop-color="#d8ab93"/>
      <stop offset=".55" stop-color="#bb8a70"/>
      <stop offset="1" stop-color="#996b52"/>
    </radialGradient>
  </defs>
  <path fill="url(#w)" d="M32 3c9 0 16 2 21 8s8 12 8 21-2 17-8 22-13 7-21 7-16-2-22-7S3 41 3 32 6 16 11 10 23 3 32 3z"/>
  <circle cx="32" cy="32" r="21" fill="none" stroke="#8a5f47" stroke-opacity=".55" stroke-width="1.6"/>
  <g fill="none" stroke="#f4e3d2" stroke-width="2.1" stroke-linecap="round" opacity=".9">
    <path d="M32 45V20"/>
    <path d="M32 27c-4-1-7-4-8-8 5 0 8 3 8 8z"/>
    <path d="M32 27c4-1 7-4 8-8-5 0-8 3-8 8z"/>
    <path d="M32 36c-4-1-7-3-8-7 5 0 8 2 8 7z"/>
    <path d="M32 36c4-1 7-3 8-7-5 0-8 2-8 7z"/>
  </g>
</svg>
